<?xml version="1.0" encoding="utf-8"?>
<!-- Generator: Adobe Illustrator 16.0.0, SVG Export Plug-In . SVG Version: 6.00 Build 0)  -->
<!DOCTYPE svg PUBLIC "-//W3C//DTD SVG 1.1//EN" "http://www.w3.org/Graphics/SVG/1.1/DTD/svg11.dtd">
<svg version="1.1" id="Layer_1" xmlns="http://www.w3.org/2000/svg" xmlns:xlink="http://www.w3.org/1999/xlink" x="0px" y="0px"
	 width="141.73px" height="141.73px" viewBox="0 0 141.73 141.73" enable-background="new 0 0 141.73 141.73" xml:space="preserve">
<g>
	<g>
		<path d="M98.852,78.279h-11.09l-8.715,29.311l-6.859-15.438l7.156-9.133l-0.749-0.744c-2.735,0.406-5.569,0.627-8.477,0.627
			c-2.873,0-5.67-0.213-8.373-0.609l-0.299,0.301l7.826,9.891l-6.769,15.645l-8.875-29.85H42.538
			c-14.738,0-26.685,11.949-26.685,26.686v30.381h109.685v-30.381C125.537,90.229,113.589,78.279,98.852,78.279z M45.057,52.417
			c0.245,0,0.486-0.019,0.723-0.049c4.488,13.735,13.957,25.341,24.915,25.341c10.96,0,20.431-11.606,24.918-25.341
			c0.237,0.031,0.478,0.049,0.719,0.049c4.154,0,7.523-4.438,7.523-9.912c0-4.582-2.361-8.424-5.563-9.564
			C97.181,15.387,85.255,7.293,70.695,7.293c-14.558,0-26.484,8.094-27.594,25.648c-3.205,1.136-5.567,4.98-5.567,9.564
			C37.534,47.979,40.903,52.417,45.057,52.417z M53.128,36.456h2.775c0-1.323,0.179-2.606,0.504-3.829l-2.684-0.717
			c-0.61-0.152-0.916-1.025-0.587-1.921c0.737-2.003,1.819-3.874,3.182-5.506c0.609-0.731,1.519-0.898,1.955-0.449l1.962,1.964
			c0.914-0.909,1.944-1.7,3.063-2.347l-1.392-2.408c-0.324-0.537,0.078-1.374,0.941-1.773c1.937-0.896,4.034-1.457,6.152-1.645
			c0.947-0.087,1.706,0.439,1.695,1.066v2.775c1.324,0,2.606,0.178,3.827,0.503l0.72-2.683c0.149-0.612,1.026-0.918,1.921-0.587
			c2.003,0.737,3.875,1.82,5.506,3.183c0.731,0.608,0.9,1.517,0.449,1.953l-1.963,1.964c0.909,0.911,1.698,1.942,2.349,3.063
			l2.405-1.392c0.54-0.326,1.374,0.076,1.774,0.941c0.897,1.934,1.458,4.033,1.644,6.152c0.091,0.947-0.437,1.706-1.063,1.694
			h-2.778c0,1.323-0.176,2.607-0.502,3.828L87.667,41c0.613,0.153,0.916,1.027,0.588,1.924c-0.737,2.004-1.821,3.872-3.184,5.505
			c-0.609,0.732-1.518,0.901-1.953,0.447l-1.963-1.962c-0.909,0.911-1.941,1.7-3.063,2.347l1.39,2.41
			c0.325,0.538-0.072,1.373-0.94,1.772c-1.936,0.896-4.033,1.458-6.151,1.646c-0.948,0.086-1.706-0.439-1.695-1.066v-2.776
			c-1.324,0-2.605-0.175-3.828-0.503l-0.718,2.685c-0.151,0.61-1.025,0.916-1.922,0.585c-2.002-0.737-3.872-1.82-5.507-3.183
			c-0.729-0.607-0.898-1.516-0.447-1.955l1.962-1.962c-0.908-0.909-1.697-1.942-2.347-3.062l-2.407,1.391
			c-0.538,0.324-1.375-0.075-1.772-0.942c-0.896-1.935-1.458-4.03-1.646-6.15C51.976,37.204,52.502,36.446,53.128,36.456z
			 M70.695,44.45c4.416,0,7.993-3.58,7.993-7.994c0-4.414-3.577-7.991-7.993-7.991c-4.414,0-7.992,3.577-7.992,7.991
			C62.703,40.87,66.282,44.45,70.695,44.45z"/>
	</g>
</g>
</svg>
