<?xml version="1.0" encoding="utf-8"?>
<!-- Generator: Adobe Illustrator 16.0.0, SVG Export Plug-In . SVG Version: 6.00 Build 0)  -->
<!DOCTYPE svg PUBLIC "-//W3C//DTD SVG 1.1//EN" "http://www.w3.org/Graphics/SVG/1.1/DTD/svg11.dtd">
<svg version="1.1" id="Layer_1" xmlns="http://www.w3.org/2000/svg" xmlns:xlink="http://www.w3.org/1999/xlink" x="0px" y="0px"
	 width="141.73px" height="141.73px" viewBox="0 0 141.73 141.73" enable-background="new 0 0 141.73 141.73" xml:space="preserve">
<path fill-rule="evenodd" clip-rule="evenodd" d="M129.319,115.109l-20.37-22.204c-0.056-0.063-0.126-0.109-0.195-0.153
	c3.141-5.512,4.095-12.253,2.046-18.782c-3.909-12.466-17.185-19.399-29.649-15.491C68.689,62.39,61.752,75.663,65.661,88.128
	c3.91,12.465,17.187,19.398,29.65,15.488c1.986-0.623,3.813-1.507,5.498-2.565l20.031,21.839c0.593,0.643,1.917,0.393,2.96-0.563
	l4.71-4.32C129.551,117.052,129.915,115.755,129.319,115.109z M71.762,86.215c-2.85-9.083,2.222-18.789,11.305-21.636
	c9.077-2.849,18.784,2.221,21.634,11.304c2.849,9.081-2.224,18.787-11.302,21.635C84.316,100.366,74.61,95.295,71.762,86.215z
	 M79.979,74.083c9.257-2.902,19.114,2.248,22.02,11.505l0.222,0.771c1.158-3.008,1.354-6.411,0.316-9.725
	c-2.444-7.786-10.732-12.118-18.518-9.675c-4.984,1.563-8.543,5.53-9.822,10.223C75.864,75.835,77.809,74.766,79.979,74.083z
	 M100.302,110.553c-2.935,2.305-6.15,4.268-9.593,5.818c1.127-1.662,2.177-3.483,3.16-5.421c-1.862,0.352-3.748,0.552-5.646,0.552
	c-1.332,0-2.642-0.106-3.934-0.273c-3.786,5.825-8.259,9.219-12.529,9.219c-7.202,0-14.996-9.598-19.07-24.357h9.074
	c-1.047-1.855-1.932-3.829-2.589-5.928c-0.228-0.727-0.399-1.459-0.572-2.194h-7.676c-0.699-4.322-1.09-8.948-1.09-13.802
	c0-4.254,0.301-8.328,0.845-12.182h13.813c2.728-3.417,6.164-6.16,10.079-8.12H52.26c3.936-15.682,12.036-25.979,19.501-25.979
	c6.944,0,14.437,8.921,18.616,22.792c3.133,0.217,6.146,0.914,8.971,2.015c-1.93-8.119-4.903-15.228-8.639-20.733
	c9.854,4.439,17.886,12.224,22.633,21.906h-11.339c3.861,1.952,7.257,4.72,9.973,8.12h4.429c1.061,3.884,1.638,7.967,1.638,12.182
	l-0.026,0.655c1.142,5.506,0.745,11.277-1.192,16.612l4.568,4.979l0.156-0.323h0.555v-1.296c2.609-6.361,4.06-13.324,4.06-20.628
	c0-30.046-24.356-54.4-54.401-54.4c-30.046,0-54.401,24.354-54.401,54.4s24.355,54.4,54.401,54.4
	c12.898,0,24.726-4.512,34.048-12.013L100.302,110.553z M52.813,31.958c-3.918,5.771-7.01,13.292-8.926,21.906H30.18
	C34.926,44.182,42.958,36.398,52.813,31.958z M25.479,74.166c0-4.215,0.578-8.297,1.639-12.182h15.365
	c-0.495,3.92-0.765,7.992-0.765,12.182c0,4.771,0.343,9.395,0.979,13.802H27.582C26.217,83.607,25.479,78.972,25.479,74.166z
	 M31.012,96.09h13.252c1.934,7.935,4.88,14.876,8.549,20.281C43.515,112.181,35.836,105.016,31.012,96.09z"/>
</svg>
