<?xml version="1.0" encoding="utf-8"?>
<!-- Generator: Adobe Illustrator 16.0.0, SVG Export Plug-In . SVG Version: 6.00 Build 0)  -->
<!DOCTYPE svg PUBLIC "-//W3C//DTD SVG 1.1//EN" "http://www.w3.org/Graphics/SVG/1.1/DTD/svg11.dtd">
<svg version="1.1" id="Layer_1" xmlns="http://www.w3.org/2000/svg" xmlns:xlink="http://www.w3.org/1999/xlink" x="0px" y="0px"
	 width="141.73px" height="141.73px" viewBox="0 0 141.73 141.73" enable-background="new 0 0 141.73 141.73" xml:space="preserve">
<path fill-rule="evenodd" clip-rule="evenodd" d="M111.531,43.46c-3.245,0-6.357,0.54-9.271,1.516
	c0.028-0.508,0.079-1.005,0.079-1.516c0-16.157-13.096-29.251-29.253-29.251c-16.154,0-29.25,13.095-29.25,29.251
	c0,1.151,0.085,2.28,0.213,3.396c-4.058-2.146-8.666-3.396-13.581-3.396c-16.157,0-29.253,13.093-29.253,29.25
	s13.096,29.252,29.253,29.252h31.839c-0.077-0.935-0.145-1.874-0.145-2.828c0-18.985,15.387-34.37,34.37-34.37
	c17.531,0,31.967,13.132,34.074,30.093c6.222-5.367,10.177-13.286,10.177-22.147C140.784,56.554,127.691,43.46,111.531,43.46z
	 M96.056,116.313l-0.145-0.182l-0.292,0.244L78.925,95.95l8.868-7.243l9.592,11.738l21.288-17.395
	c-5.04-6.19-12.721-10.154-21.328-10.154c-15.183,0-27.492,12.31-27.492,27.495s12.309,27.495,27.492,27.495
	c15.189,0,27.495-12.31,27.495-27.495c0-2.377-0.332-4.665-0.899-6.86L96.056,116.313z"/>
</svg>
