<?xml version="1.0" encoding="utf-8"?>
<!-- Generator: Adobe Illustrator 16.0.0, SVG Export Plug-In . SVG Version: 6.00 Build 0)  -->
<!DOCTYPE svg PUBLIC "-//W3C//DTD SVG 1.1//EN" "http://www.w3.org/Graphics/SVG/1.1/DTD/svg11.dtd">
<svg version="1.1" id="Layer_1" xmlns="http://www.w3.org/2000/svg" xmlns:xlink="http://www.w3.org/1999/xlink" x="0px" y="0px"
	 width="141.73px" height="141.73px" viewBox="0 0 141.73 141.73" enable-background="new 0 0 141.73 141.73" xml:space="preserve">
<path fill-rule="evenodd" clip-rule="evenodd" d="M93.66,87.06v34.032H24.316v-77.58h13.671c4.986,0,9.028-4.042,9.028-9.03V20.86
	H93.66v23.5l8.304-8.206V18.066c0-3.044-2.467-5.512-5.51-5.512H44.338L16.012,40.866v2.543l-0.103,0.103h0.103v80.376
	c0,3.043,2.468,5.511,5.51,5.511h74.933c3.043,0,5.51-2.468,5.51-5.511V78.854L93.66,87.06z M84.944,53.031v-0.384H35.08v3.612
	h46.602L84.944,53.031z M75.743,62.141H35.122v3.61h36.971L75.743,62.141z M66.153,71.632H35.122v3.61h27.382L66.153,71.632z
	 M65.093,98.305l-3.578-3.616c-0.802-0.812-1.704-0.575-2.004,0.524l-1.344,4.91c-0.3,1.099,0.356,1.765,1.458,1.475l4.92-1.291
	C65.651,100.016,65.895,99.118,65.093,98.305z M65.758,82.529c2.19,1.172,4.337,2.746,6.286,4.72c1.952,1.97,3.503,4.132,4.65,6.339
	l49.081-48.577c-3.031-7.969-10.936-11.058-10.936-11.058L65.758,82.529z"/>
</svg>
